<svg xmlns="http://www.w3.org/2000/svg" viewBox="0 0 32 32" fill="none">
  <defs>
    <linearGradient id="favicon-gradient" x1="0%" y1="0%" x2="100%" y2="100%">
      <stop offset="0%" stop-color="#8b5cf6" />
      <stop offset="100%" stop-color="#d946ef" />
    </linearGradient>
  </defs>
  <circle cx="16" cy="16" r="14" fill="url(#favicon-gradient)" />
  <path d="M16 8c-2.2 0-4 1.8-4 4v4c0 2.2 1.8 4 4 4s4-1.8 4-4v-4c0-2.2-1.8-4-4-4z" fill="white" />
  <path d="M22 16v1c0 3.3-2.7 6-6 6s-6-2.7-6-6v-1h-2v1c0 4 3 7.4 7 7.9V27h-2v2h6v-2h-2v-2.1c4-.5 7-3.9 7-7.9v-1h-2z" fill="white" />
</svg>
